<svg width="1000" height="1000" viewBox="0 0 1000 1000" fill="none" xmlns="http://www.w3.org/2000/svg">
<rect width="1000" height="1000" fill="black"/>
<path d="M341.2 410.152L595.37 665H486.848L232 410.152V409.111L486.111 155H595.82L341.2 410.152Z" fill="white"/>
<rect x="666" y="265" width="102" height="400" fill="white"/>
<rect x="666" y="155" width="102" height="85" fill="white"/>
<path d="M50.9801 859V713.545H72.9261V783.006H74.7017L135.71 713.545H163.338L104.673 779.028L163.551 859H137.131L90.1136 794.014L72.9261 813.759V859H50.9801ZM302.915 786.273C302.915 801.803 300.075 815.155 294.393 826.33C288.711 837.456 280.922 846.027 271.026 852.04C261.178 858.006 249.98 860.989 237.433 860.989C224.838 860.989 213.593 858.006 203.697 852.04C193.848 846.027 186.083 837.433 180.401 826.259C174.719 815.084 171.879 801.756 171.879 786.273C171.879 770.742 174.719 757.414 180.401 746.287C186.083 735.113 193.848 726.543 203.697 720.577C213.593 714.563 224.838 711.557 237.433 711.557C249.98 711.557 261.178 714.563 271.026 720.577C280.922 726.543 288.711 735.113 294.393 746.287C300.075 757.414 302.915 770.742 302.915 786.273ZM281.183 786.273C281.183 774.436 279.265 764.469 275.43 756.372C271.642 748.228 266.433 742.073 259.805 737.906C253.223 733.692 245.766 731.585 237.433 731.585C229.052 731.585 221.571 733.692 214.989 737.906C208.408 742.073 203.2 748.228 199.364 756.372C195.576 764.469 193.683 774.436 193.683 786.273C193.683 798.11 195.576 808.1 199.364 816.244C203.2 824.341 208.408 830.496 214.989 834.71C221.571 838.877 229.052 840.96 237.433 840.96C245.766 840.96 253.223 838.877 259.805 834.71C266.433 830.496 271.642 824.341 275.43 816.244C279.265 808.1 281.183 798.11 281.183 786.273ZM330.277 859V713.545H382.124C393.393 713.545 402.744 715.487 410.178 719.369C417.659 723.252 423.246 728.626 426.939 735.491C430.632 742.31 432.479 750.193 432.479 759.142C432.479 768.044 430.608 775.88 426.868 782.651C423.175 789.374 417.588 794.606 410.107 798.347C402.673 802.087 393.321 803.957 382.053 803.957H342.777V785.065H380.064C387.166 785.065 392.943 784.047 397.393 782.011C401.892 779.975 405.182 777.016 407.266 773.134C409.349 769.251 410.391 764.587 410.391 759.142C410.391 753.65 409.325 748.891 407.195 744.866C405.111 740.842 401.821 737.764 397.322 735.634C392.872 733.455 387.024 732.366 379.78 732.366H352.223V859H330.277ZM402.081 793.375L438.018 859H413.018L377.791 793.375H402.081ZM459.183 859V713.545H550.376V732.438H481.129V776.756H545.618V795.577H481.129V840.108H551.229V859H459.183ZM591.978 859H568.683L621.026 713.545H646.381L698.725 859H675.43L634.308 739.966H633.171L591.978 859ZM595.884 802.04H671.452V820.506H595.884V802.04ZM794.606 713.545V859H772.66V713.545H794.606ZM943.967 713.545V859H923.796L849.862 752.324H848.512V859H826.566V713.545H846.879L920.884 820.364H922.234V713.545H943.967Z" fill="white"/>
</svg>
